<?xml version="1.0" standalone="no"?>
<!DOCTYPE svg PUBLIC "-//W3C//DTD SVG 20010904//EN"
 "http://www.w3.org/TR/2001/REC-SVG-20010904/DTD/svg10.dtd">
<svg version="1.0" xmlns="http://www.w3.org/2000/svg"
 width="1024.000000pt" height="276.000000pt" viewBox="0 0 1024.000000 276.000000"
 preserveAspectRatio="xMidYMid meet">
<metadata>
Created by potrace 1.16, written by Peter Selinger 2001-2019
</metadata>
<g transform="translate(0.000000,276.000000) scale(0.100000,-0.100000)"
fill="#c20064" stroke="none">
<path d="M4308 2147 l-68 -9 0 -594 0 -594 90 0 90 0 0 114 0 113 57 64 c31
35 59 65 62 66 3 2 48 -62 100 -142 51 -80 109 -158 127 -175 42 -36 104 -54
161 -45 l43 6 0 85 0 84 -31 0 c-17 0 -39 4 -49 10 -17 9 -204 272 -216 304
-4 10 50 80 146 190 l151 176 -105 0 -105 0 -168 -195 -168 -195 -3 375 -2
375 -23 -1 c-12 -1 -52 -6 -89 -12z"/>
<path d="M834 2136 c-60 -19 -129 -70 -164 -121 -59 -85 -60 -96 -60 -466 0
-314 1 -342 20 -392 34 -92 119 -171 211 -197 18 -5 183 -10 368 -10 l336 -1
3 100 3 101 -318 0 c-454 0 -423 -29 -423 398 0 321 3 341 58 379 24 16 58 18
355 21 l327 3 0 100 0 99 -337 -1 c-246 0 -349 -4 -379 -13z" fill="#22366f"/>
<path d="M1735 1905 l0 -245 100 0 100 0 0 245 0 245 -100 0 -100 0 0 -245z"/>
<path d="M2470 1900 l0 -250 -218 0 -217 0 -42 -95 -42 -95 260 0 259 0 0
-254 0 -255 100 -3 100 -3 0 603 0 602 -100 0 -100 0 0 -250z"/>
<path d="M7693 2115 c-57 -25 -70 -139 -21 -185 25 -23 73 -28 135 -15 28 7
53 53 53 100 0 92 -78 139 -167 100z"/>
<path d="M3103 1796 c-119 -30 -225 -136 -258 -259 -14 -51 -17 -93 -13 -198
3 -125 6 -139 34 -199 60 -126 155 -190 292 -198 102 -6 188 10 268 50 l61 29
6 92 c3 51 3 94 1 96 -2 2 -17 -9 -35 -23 -65 -55 -174 -96 -254 -96 -85 1
-164 61 -186 143 -16 61 -7 273 13 312 47 88 161 129 252 91 42 -18 66 -51 66
-94 0 -78 -44 -102 -185 -102 l-95 0 0 -71 0 -72 143 6 c156 6 199 16 251 59
37 31 66 102 66 163 0 103 -74 213 -172 255 -64 27 -182 35 -255 16z"/>
<path d="M3800 1798 c-30 -4 -70 -10 -87 -13 l-33 -6 0 -414 0 -415 90 0 90 0
0 253 c0 151 4 268 11 292 25 92 98 140 202 133 l55 -3 6 35 c12 70 7 137 -10
144 -74 28 -180 -22 -237 -114 l-22 -35 -5 75 -5 75 -55 -7z"/>
<path d="M5314 1797 c-70 -18 -134 -58 -184 -114 -70 -79 -100 -174 -100 -318
0 -195 66 -324 202 -397 38 -21 56 -23 168 -23 131 1 184 14 268 65 l32 20 0
90 0 91 -46 -35 c-118 -91 -285 -111 -369 -44 -54 43 -68 90 -68 235 0 115 3
137 23 177 27 57 64 84 132 98 63 13 127 -1 158 -34 31 -33 28 -107 -6 -139
-23 -22 -35 -24 -140 -27 l-114 -4 0 -70 0 -70 148 3 c142 4 151 5 207 34 76
39 105 89 105 180 0 121 -57 212 -164 261 -66 30 -179 39 -252 21z"/>
<path d="M6155 1786 c-27 -13 -63 -35 -78 -50 -15 -14 -30 -26 -33 -26 -2 0
-4 20 -4 45 0 52 3 51 -100 34 l-70 -12 -2 -413 -3 -414 88 0 87 0 0 273 c0
159 4 288 11 310 12 46 58 100 99 117 46 19 123 8 165 -24 69 -53 70 -58 73
-383 l3 -293 90 0 90 0 -3 318 c-3 357 -5 364 -84 452 -81 89 -220 117 -329
66z"/>
<path d="M7054 1794 c-23 -8 -59 -30 -82 -49 -22 -19 -43 -35 -46 -35 -3 0 -6
20 -6 45 0 25 -4 45 -10 45 -5 0 -43 -5 -85 -11 l-75 -11 0 -414 0 -414 84 0
84 0 4 288 c3 274 4 289 25 329 32 59 75 86 142 91 65 4 102 -15 147 -74 l29
-37 3 -299 3 -298 90 0 90 0 -3 323 -3 322 -27 50 c-56 108 -147 165 -258 164
-36 0 -84 -7 -106 -15z"/>
<path d="M8354 1794 c-23 -8 -59 -30 -82 -49 -22 -19 -43 -35 -46 -35 -3 0 -6
20 -6 45 0 25 -4 45 -10 45 -5 0 -43 -5 -85 -11 l-75 -11 0 -414 0 -414 88 0
87 0 0 288 c0 278 1 288 22 329 35 65 75 88 153 88 78 0 118 -23 153 -88 21
-40 22 -54 25 -329 l3 -288 90 0 90 0 -3 318 c-3 298 -4 320 -24 363 -28 60
-76 114 -132 146 -37 22 -60 27 -126 30 -54 2 -95 -2 -122 -13z"/>
<path d="M9113 1794 c-57 -21 -129 -86 -161 -148 -26 -50 -27 -56 -30 -251 -3
-183 -2 -205 17 -256 46 -122 149 -194 276 -193 85 0 132 15 191 60 24 19 46
34 47 34 2 0 2 -39 0 -86 -4 -94 -18 -134 -59 -161 -76 -50 -238 -26 -334 49
l-25 20 -11 -94 c-10 -82 -10 -94 5 -106 32 -25 118 -44 226 -49 95 -4 117 -2
166 16 75 29 141 88 176 159 l28 57 3 481 3 481 -91 -15 -90 -15 6 -33 c7 -39
-4 -44 -32 -13 -10 12 -41 33 -69 47 -63 32 -178 40 -242 16z m255 -161 c19
-9 43 -34 57 -58 24 -40 25 -50 25 -196 0 -141 -2 -157 -23 -194 -26 -47 -92
-85 -147 -85 -56 1 -115 33 -147 81 -26 40 -28 50 -32 172 -2 84 1 145 10 174
30 110 146 157 257 106z"/>
<path d="M7660 1365 l0 -415 90 0 90 0 0 415 0 415 -90 0 -90 0 0 -415z"/>
<path d="M950 1555 l0 -95 233 0 232 0 42 95 42 95 -275 0 -274 0 0 -95z" fill="#22366f"/>
<path d="M1739 1450 c-1 -3 -2 -116 -3 -252 l-1 -248 100 0 100 0 0 249 0 250
-98 3 c-53 2 -97 1 -98 -2z"/>
</g>
</svg>
