<svg width="34" height="31" viewBox="0 0 34 31" fill="none" xmlns="http://www.w3.org/2000/svg">
<path d="M20.836 5.5419L20.7804 5.50657C19.7084 4.81321 18.666 4.60123 17.6813 4.87725C15.9125 5.37408 14.9981 7.25985 14.96 7.33934L15.4136 7.56236C15.4906 7.41442 15.6364 7.32609 15.8036 7.32609C15.9708 7.32609 16.117 7.41442 16.1941 7.56236L28.2994 30.6H34L20.836 5.5419Z" fill="#02608D"/>
<path d="M18.4777 25.5313H6.51793C6.36232 25.5313 6.2266 25.453 6.1457 25.3188C6.0648 25.1846 6.0595 25.028 6.13134 24.8871L15.1858 7.25408C15.1939 7.23618 16.0293 5.47132 17.563 5.03066C18.3924 4.79355 19.286 4.98592 20.221 5.60553L21.021 6.13342L18.9335 2.06908C18.2794 0.794079 16.9899 0 15.5677 0C14.8699 0 14.1882 0.192368 13.5972 0.556974C13.007 0.917105 12.5245 1.44053 12.202 2.06908L0.431839 24.9922C-0.184861 26.1934 -0.138664 27.6004 0.555179 28.7546C1.24858 29.9111 2.45965 30.6 3.79517 30.6H21.08L18.4777 25.5313Z" fill="#00A4C6"/>
</svg>
